<svg xmlns="http://www.w3.org/2000/svg" width="30" height="30" viewBox="0 0 30 30">
  <path id="Subtraction_1" data-name="Subtraction 1" d="M-3965,30a14.9,14.9,0,0,1-10.606-4.393A14.9,14.9,0,0,1-3980,15a15.017,15.017,0,0,1,15-15,15.017,15.017,0,0,1,15,15,14.9,14.9,0,0,1-4.394,10.606A14.9,14.9,0,0,1-3965,30Zm-2.493-14.3h0l-5.162,5.128a1.5,1.5,0,0,0,.642.151h14.026a1.486,1.486,0,0,0,.642-.151l-5.162-5.128-.73.73a2.474,2.474,0,0,1-1.762.729,2.476,2.476,0,0,1-1.763-.729l-.73-.73Zm10.852-5.833h0L-3961.8,15l5.161,5.13a1.477,1.477,0,0,0,.15-.642V10.513a1.461,1.461,0,0,0-.15-.64Zm-16.719,0h0a1.479,1.479,0,0,0-.15.64v8.975a1.492,1.492,0,0,0,.15.642L-3968.2,15l-5.162-5.127Zm1.347-.855a1.476,1.476,0,0,0-.642.15l6.6,6.563a1.475,1.475,0,0,0,1.056.439,1.483,1.483,0,0,0,1.06-.439l6.6-6.563a1.468,1.468,0,0,0-.642-.15Z" transform="translate(3980)" fill="#404040"/>
</svg>
